<svg xmlns="http://www.w3.org/2000/svg" viewBox="0 0 64 64">
  <g>
    <path fill="currentColor" d="M31.14,40.66c-.38.07-.74.26-1.03.55l-5.19,5.19c-1.16,1.17-2.81,1.72-4.65,1.59-1.95-.15-3.86-1.06-5.37-2.57-3.04-3.04-3.48-7.53-.99-10.02l5.19-5.19c.78-.78.78-2.05,0-2.83-.78-.78-2.05-.78-2.83,0l-5.19,5.19c-4.05,4.05-3.6,11.08.99,15.67,2.19,2.18,4.99,3.51,7.89,3.73.29.02.58.03.87.03h0c2.68.01,5.11-.96,6.92-2.77l5.19-5.19c.2-.2.35-.44.45-.7-.85-.8-1.6-1.7-2.25-2.68Z"/>
    <path fill="currentColor" d="M46.13,17.69c-.46-.68-.98-1.33-1.59-1.94-2.19-2.18-4.99-3.51-7.89-3.73-3.03-.23-5.79.75-7.79,2.75l-5.19,5.19c-.78.78-.78,2.05,0,2.83.78.78,2.05.78,2.83,0l5.19-5.19c1.16-1.17,2.82-1.72,4.65-1.59,1.56.12,3.1.74,4.42,1.75.95-.19,1.92-.29,2.92-.29.83,0,1.65.09,2.44.22Z"/>
    <path fill="var(--icon-color-accent, #ff8700)" d="M29.33,28.14l-9.94,9.94c-.37.37-.58.88-.59,1.41,0,1.11.89,2.01,2,2.01h.01c.51,0,1.02-.2,1.41-.59l6.59-6.59c-.07-.61-.13-1.22-.13-1.85,0-1.51.23-2.96.64-4.33Z"/>
  </g>
  <path fill="var(--icon-color-accent, #ff8700)" d="M43.69,20.47c-6.63,0-12,5.37-12,12s5.37,12,12,12,12-5.37,12-12-5.37-12-12-12ZM50.98,35.26c-.69,1.93-2.12,3.55-4.02,4.32-6.11,2.44-11.9-2.58-10.85-8.56.54-3.09,2.79-5.48,5.84-6.18,2.13-.49,4.15-.1,5.79.87l1.47-1.47c.16-.16.44-.06.46.17l.3,5.01c0,.16-.12.29-.28.28l-5.01-.3c-.23-.01-.34-.29-.17-.46l1.5-1.5c-1.54-.69-3.43-.74-5.4.5-.71.45-1.29,1.1-1.65,1.86-2.05,4.3,1.35,8.54,5.53,8.02,1.77-.22,3.3-1.37,4.14-2.95.08-.14.13-.28.19-.42l2.19.8s0,0,0,0c0,0,0,0,0,0Z"/>
</svg>